<svg width="150" height="150" viewBox="0 0 150 150" fill="none" xmlns="http://www.w3.org/2000/svg">
<g clip-path="url(#clip0_1660_4206)">
<path fill-rule="evenodd" clip-rule="evenodd" d="M75 135.938C85.6978 135.953 96.2094 133.139 105.469 127.781V107.812C105.469 102.218 103.246 96.8528 99.2905 92.897C95.3347 88.9411 89.9694 86.7188 84.375 86.7188H65.625C60.0306 86.7188 54.6653 88.9411 50.7095 92.897C46.7536 96.8528 44.5312 102.218 44.5312 107.812V127.781C53.7905 133.139 64.3022 135.953 75 135.938ZM119.531 107.812V116.597C127.638 107.919 133.032 97.0606 135.051 85.3577C137.069 73.6549 135.624 61.6173 130.894 50.7246C126.163 39.8319 118.353 30.5589 108.423 24.0454C98.4925 17.5319 86.8756 14.0619 75 14.0619C63.1244 14.0619 51.5075 17.5319 41.5775 24.0454C31.6474 30.5589 23.837 39.8319 19.1062 50.7246C14.3755 61.6173 12.9307 73.6549 14.9493 85.3577C16.968 97.0606 22.3621 107.919 30.4688 116.597V107.812C30.4687 100.564 32.7076 93.4934 36.8794 87.5663C41.0512 81.6393 46.952 77.1456 53.775 74.7C50.2349 70.6281 47.9408 65.6238 47.1663 60.284C46.3918 54.9443 47.1696 49.4944 49.407 44.5845C51.6443 39.6746 55.2468 35.512 59.7847 32.593C64.3226 29.674 69.6044 28.122 75 28.122C80.3956 28.122 85.6774 29.674 90.2153 32.593C94.7532 35.512 98.3557 39.6746 100.593 44.5845C102.83 49.4944 103.608 54.9443 102.834 60.284C102.059 65.6238 99.7651 70.6281 96.225 74.7C103.048 77.1456 108.949 81.6393 113.121 87.5663C117.292 93.4934 119.531 100.564 119.531 107.812ZM75 150C94.8912 150 113.968 142.098 128.033 128.033C142.098 113.968 150 94.8912 150 75C150 55.1088 142.098 36.0322 128.033 21.967C113.968 7.90176 94.8912 0 75 0C55.1088 0 36.0322 7.90176 21.967 21.967C7.90176 36.0322 0 55.1088 0 75C0 94.8912 7.90176 113.968 21.967 128.033C36.0322 142.098 55.1088 150 75 150ZM89.0625 56.25C89.0625 59.9796 87.5809 63.5565 84.9437 66.1937C82.3065 68.8309 78.7296 70.3125 75 70.3125C71.2704 70.3125 67.6935 68.8309 65.0563 66.1937C62.4191 63.5565 60.9375 59.9796 60.9375 56.25C60.9375 52.5204 62.4191 48.9435 65.0563 46.3063C67.6935 43.6691 71.2704 42.1875 75 42.1875C78.7296 42.1875 82.3065 43.6691 84.9437 46.3063C87.5809 48.9435 89.0625 52.5204 89.0625 56.25Z" fill="#79A8E0"/>
</g>
<defs>
<clipPath id="clip0_1660_4206">
<rect width="150" height="150" fill="white"/>
</clipPath>
</defs>
</svg>
